# xmcd
#
# Track frame offsets: 
#        150
#        2204
#        23279
#        39273
#        60747
#        89416
#        119576
#        136986
#        156140
#        178903
#        215775
#
# Disc length: 3126 seconds
#
# Revision: 0
# Processed by: cddbd v1.5.2PL0 Copyright (c) Steve Scherf et al.
# Submitted via: ExactAudioCopy v0.99pb4
#
DISCID=920c340b
DTITLE=The Sean Carney Band - Live Blues On Whyte
DYEAR=2008
DGENRE=Blues
TTITLE0=Introduction
TTITLE1=It's My Life Baby
TTITLE2=All These Worries
TTITLE3=Why Do You Lie
TTITLE4=29 Ways
TTITLE5=Call My Job
TTITLE6=Money's Getting Cheaper
TTITLE7=Too Many Cooks
TTITLE8=Life Of Ease
TTITLE9=What Can I Say
TTITLE10=Bad Side Baby
EXTD=
EXTT0=
EXTT1=
EXTT2=
EXTT3=
EXTT4=
EXTT5=
EXTT6=
EXTT7=
EXTT8=
EXTT9=
EXTT10=
PLAYORDER=
